# xmcd
#
# Track frame offsets: 
#        150
#        10707
#        23964
#        38289
#        49896
#        62618
#        76043
#        89693
#        103006
#        116975
#        129491
#        150923
#        164216
#        178016
#        197479
#        218216
#        231341
#        251470
#        265129
#        287291
#
# Disc length: 4011 seconds
#
# Revision: 0
# Processed by: cddbd v1.5.2PL0 Copyright (c) Steve Scherf et al.
# Submitted via: ExactAudioCopyFreeDBPlugin 1.0
#
DISCID=080fa914
DTITLE=Muddy Waters - The Album - Sings "Big Bill" and Live At Newport J
DTITLE=azz Festival
DYEAR=2018
DGENRE=Blues
TTITLE0=Tell Me Baby
TTITLE1=Southbound Train
TTITLE2=When I Get To Thinking
TTITLE3=Just A Dream (On My Mind)
TTITLE4=Double Trouble
TTITLE5=I Feel So Good
TTITLE6=Baby, I Got Done Wise
TTITLE7=Mopper's Blues
TTITLE8=Lonesome Road Blues
TTITLE9=Hey, Hey
TTITLE10=I Got My Brand On You
TTITLE11=I'm Your Hoochie Coochie Man
TTITLE12=Baby, Please Don't Go
TTITLE13=Soon Forgotten
TTITLE14=Tiger In Your Tank
TTITLE15=I Feel So Good
TTITLE16=Got My Mojo Working
TTITLE17=Got My Mojo Working (Part II)
TTITLE18=Goodbye Newport Blues
TTITLE19=Going Home - Bonus Track
EXTD=
EXTT0=
EXTT1=
EXTT2=
EXTT3=
EXTT4=
EXTT5=
EXTT6=
EXTT7=
EXTT8=
EXTT9=
EXTT10=
EXTT11=
EXTT12=
EXTT13=
EXTT14=
EXTT15=
EXTT16=
EXTT17=
EXTT18=
EXTT19=
PLAYORDER=
